<svg width="24" height="24" viewBox="0 0 24 24" fill="none" xmlns="http://www.w3.org/2000/svg">
<g clip-path="url(#clip0_2399_2505)">
<path d="M17.2432 9.53533C19.6576 8.92713 20.2992 8.52084 20.5866 8.23348C21.1995 7.62064 21.5369 6.80581 21.5369 5.93908C21.5369 5.07235 21.1994 4.25752 20.5866 3.64468C20.0985 3.15664 19.4715 2.84138 18.8004 2.73502C18.694 2.06405 18.3788 1.43692 17.8907 0.948823C16.6256 -0.316274 14.567 -0.316274 13.3018 0.948823C13.0147 1.236 12.6087 1.87724 11.9999 4.29216C11.3917 1.87776 10.9855 1.23614 10.6981 0.948823C9.43299 -0.316274 7.37444 -0.316274 6.10925 0.948823C5.6212 1.43687 5.30599 2.06405 5.19963 2.73502C4.52866 2.84148 3.90148 3.15664 3.41343 3.64468C2.80055 4.25752 2.46307 5.07235 2.46307 5.93908C2.46307 6.80581 2.8006 7.62064 3.41343 8.23348C3.70056 8.52061 4.3418 8.92666 6.75677 9.53542C4.34241 10.1436 3.70075 10.5499 3.41343 10.8372C2.14833 12.1024 2.14833 14.1609 3.41343 15.4261C3.90153 15.9142 4.52866 16.2294 5.19963 16.3358C5.30604 17.0067 5.62125 17.6339 6.10925 18.1219C6.72213 18.7348 7.53696 19.0723 8.40369 19.0723C9.27042 19.0723 10.0853 18.7348 10.6981 18.1219C10.8592 17.9609 11.0576 17.6883 11.3083 17.054C11.4238 19.5737 12.4356 21.9471 14.1872 23.7823C14.3254 23.9271 14.5104 24 14.6959 24C14.8704 24 15.0452 23.9355 15.1813 23.8055C15.4623 23.5374 15.4726 23.0923 15.2045 22.8114C13.7208 21.2568 12.8509 19.256 12.721 17.1269C12.9578 17.7091 13.1471 17.9672 13.3019 18.122C13.9148 18.7349 14.7296 19.0724 15.5963 19.0724C16.4631 19.0724 17.2779 18.7349 17.8907 18.122C18.3788 17.634 18.694 17.0068 18.8004 16.3358C19.4713 16.2294 20.0985 15.9142 20.5866 15.4262C21.8517 14.161 21.8517 12.1025 20.5866 10.8373C20.2994 10.5501 19.6582 10.1441 17.2432 9.53533ZM19.5922 14.4317C19.2196 14.8043 18.7036 14.9993 18.1764 14.966C17.9748 14.9534 17.7778 15.0278 17.6351 15.1705C17.4924 15.3132 17.418 15.5103 17.4306 15.7117C17.4636 16.239 17.2689 16.755 16.8963 17.1276C16.5491 17.4748 16.0875 17.666 15.5964 17.666C15.1053 17.666 14.6436 17.4748 14.2965 17.1277C14.2599 17.09 13.9215 16.6891 13.325 14.2795C13.1714 13.659 12.6389 13.2419 12 13.2419C11.3611 13.2419 10.8287 13.659 10.6751 14.2795C10.0786 16.689 9.74018 17.09 9.70371 17.1276C9.35649 17.4748 8.89483 17.666 8.40374 17.666C7.91264 17.666 7.45099 17.4748 7.10376 17.1276C6.73122 16.755 6.53649 16.239 6.56954 15.7117C6.58215 15.5103 6.50766 15.3132 6.36497 15.1705C6.22227 15.0278 6.02529 14.9535 5.82376 14.966C5.29652 14.999 4.78049 14.8043 4.40795 14.4317C3.69114 13.7149 3.69114 12.5485 4.40771 11.8319C4.4455 11.7953 4.84645 11.4569 7.25598 10.8604C7.87655 10.7068 8.29353 10.1743 8.29353 9.53542C8.29353 8.89652 7.87655 8.36408 7.25598 8.21042C4.84645 7.61394 4.4455 7.27553 4.40795 7.23906C4.06072 6.89183 3.86951 6.43013 3.86951 5.93908C3.86951 5.44803 4.06072 4.98633 4.408 4.63911C4.78049 4.26657 5.29662 4.07165 5.82385 4.10489C6.02548 4.11736 6.22236 4.04296 6.36501 3.90031C6.50766 3.75761 6.5822 3.56054 6.56959 3.35915C6.53654 2.83191 6.73127 2.31583 7.10381 1.94329C7.82067 1.22648 8.987 1.22653 9.70357 1.94306C9.74018 1.98089 10.0786 2.38179 10.6751 4.79137C10.8287 5.41194 11.3612 5.82892 12.0001 5.82892C12.6389 5.82892 13.1714 5.41194 13.325 4.79137C13.9215 2.38184 14.26 1.98089 14.2964 1.94329C15.0132 1.22648 16.1795 1.22648 16.8963 1.94329C17.2689 2.31583 17.4636 2.83191 17.4306 3.35915C17.418 3.56054 17.4924 3.75761 17.6351 3.90031C17.7778 4.04296 17.975 4.11759 18.1763 4.10489C18.7035 4.07156 19.2196 4.26657 19.5922 4.63911C19.9394 4.98633 20.1306 5.44803 20.1306 5.93908C20.1306 6.43013 19.9394 6.89183 19.5924 7.23887C19.5546 7.27548 19.1536 7.61399 16.7441 8.21046C16.1236 8.36408 15.7066 8.89657 15.7066 9.53547C15.7066 10.1743 16.1236 10.7068 16.7441 10.8604C19.1537 11.4569 19.5546 11.7953 19.5922 11.8317C20.3089 12.5485 20.3089 13.7149 19.5922 14.4317Z" fill="#00B25B"/>
<path d="M15.193 6.3424C14.9185 6.06783 14.4732 6.06783 14.1986 6.3424L12 8.54102L9.80136 6.3424C9.5268 6.06783 9.08155 6.06783 8.80694 6.3424C8.53233 6.61696 8.53233 7.06221 8.80694 7.33682L11.0056 9.53545L8.80699 11.7341C8.53238 12.0086 8.53238 12.4539 8.80699 12.7285C8.94429 12.8658 9.12426 12.9345 9.30418 12.9345C9.48409 12.9345 9.66411 12.8658 9.80136 12.7285L12 10.5299L14.1986 12.7285C14.3359 12.8658 14.5159 12.9345 14.6958 12.9345C14.8757 12.9345 15.0557 12.8658 15.193 12.7285C15.4676 12.4539 15.4676 12.0087 15.193 11.7341L12.9944 9.53545L15.193 7.33682C15.4677 7.06226 15.4677 6.61701 15.193 6.3424Z" fill="#00B25B"/>
</g>
<defs>
<clipPath id="clip0_2399_2505">
<rect width="24" height="24" fill="white"/>
</clipPath>
</defs>
</svg>
